<svg width="32" height="32" fill="none" xmlns="http://www.w3.org/2000/svg"><path fill-rule="evenodd" clip-rule="evenodd" d="M8.535 1.5A7.035 7.035 0 0 0 1.5 8.535v15.07a7.035 7.035 0 0 0 7.035 7.035h15.07a7.035 7.035 0 0 0 7.035-7.035V8.535A7.035 7.035 0 0 0 23.605 1.5H8.535ZM.5 8.535A8.035 8.035 0 0 1 8.535.5h15.07a8.035 8.035 0 0 1 8.035 8.035v15.07a8.035 8.035 0 0 1-8.035 8.035H8.535A8.035 8.035 0 0 1 .5 23.605V8.535Zm16.446 2.001a5.528 5.528 0 1 0-1.622 10.936 5.528 5.528 0 0 0 1.622-10.936Zm-3.817-.326a6.527 6.527 0 1 1 6.013 11.588 6.527 6.527 0 0 1-6.013-11.588Zm11.23-2.929a.5.5 0 1 0 0 1h.017a.5.5 0 1 0 0-1h-.018Z" fill="#23B123"/></svg>