<svg width="56" height="56" fill="none" xmlns="http://www.w3.org/2000/svg"><path d="M40.25 35.901c0-8.076-6.615-8.997-11.93-9.735-5.792-.805-9.07-1.505-9.07-6.492 0-4.186 4.387-5.674 8.145-5.674a11.82 11.82 0 0 1 9.744 4.599l2.723-2.198a15.139 15.139 0 0 0-10.112-5.733V5.25h-3.5v5.289c-6.326.385-10.5 3.954-10.5 9.135 0 8.277 6.703 9.21 12.087 9.957 5.693.793 8.913 1.474 8.913 6.27C36.75 41.207 31.267 42 28 42c-6.002 0-8.536-1.687-10.888-4.599l-2.723 2.198a14.767 14.767 0 0 0 11.861 5.84v5.311h3.5v-5.329c6.52-.532 10.5-4.072 10.5-9.52Z" fill="#23B123"/></svg>