<svg width="56" height="56" fill="none" xmlns="http://www.w3.org/2000/svg"><path d="M42 32a6.006 6.006 0 0 1 5.66 4H28v-1H14a3 3 0 0 0-2.986 2.71L11 38v1.43C11 44.778 17.778 49 28 49v-1h14.942c-3.58 2.486-8.82 4-14.942 4-11.58 0-20-5.134-20-12.57V38a6 6 0 0 1 6-6h28Zm6 6v1.43c0 .534-.046 1.058-.14 1.57H28v-3h20Zm-.742 5H28v3h17.268c.854-.922 1.526-1.928 1.99-3Zm-7.35-28.5c.124.996.124 2.004 0 3H28v-3h11.908Zm-.426-2a11.948 11.948 0 0 0-1.394-3H28v3h11.482ZM28 4c3.306 0 6.3 1.338 8.47 3.5H28V7a9 9 0 0 0 0 18v-.5h8.47A12 12 0 1 1 28 4Zm10.088 18.5H28v-3h11.48a11.792 11.792 0 0 1-1.392 3Z" fill="#23B123"/></svg>