<svg width="48" height="48" fill="none" xmlns="http://www.w3.org/2000/svg"><g clip-path="url(#a)"><circle cx="24" cy="24" r="24" fill="#fff"/><path d="M39.778 10.015a15.726 15.726 0 0 1-4.536 2.216 6.453 6.453 0 0 0-7.19-1.805 6.475 6.475 0 0 0-3.047 2.42 6.506 6.506 0 0 0-1.116 3.732v1.45a15.359 15.359 0 0 1-7.322-1.644 15.411 15.411 0 0 1-5.678-4.92S5.11 24.503 18.11 30.3A16.775 16.775 0 0 1 8 33.198c13 7.245 28.889 0 28.889-16.663a6.534 6.534 0 0 0-.116-1.203 11.195 11.195 0 0 0 3.005-5.317v0Z" stroke="#23B123" stroke-linecap="round" stroke-linejoin="round"/></g><defs><clipPath id="a"><path fill="#fff" d="M0 0h48v48H0z"/></clipPath></defs></svg>