<svg width="48" height="48" fill="none" xmlns="http://www.w3.org/2000/svg"><circle cx="24" cy="24" r="24" fill="#fff"/><path fill-rule="evenodd" clip-rule="evenodd" d="M16.535 9.5A7.035 7.035 0 0 0 9.5 16.535v15.07a7.035 7.035 0 0 0 7.035 7.035h15.07a7.035 7.035 0 0 0 7.035-7.035v-15.07A7.035 7.035 0 0 0 31.605 9.5h-15.07ZM8.5 16.535A8.035 8.035 0 0 1 16.535 8.5h15.07a8.035 8.035 0 0 1 8.035 8.035v15.07a8.035 8.035 0 0 1-8.035 8.035h-15.07A8.035 8.035 0 0 1 8.5 31.605v-15.07Zm16.446 2.001a5.528 5.528 0 1 0-1.622 10.936 5.528 5.528 0 0 0 1.622-10.936Zm-3.817-.326a6.528 6.528 0 1 1 6.013 11.59 6.528 6.528 0 0 1-6.013-11.589Zm11.23-2.929a.5.5 0 1 0 0 1h.017a.5.5 0 1 0 0-1h-.018Z" fill="#23B123"/></svg>